<svg xmlns="http://www.w3.org/2000/svg" viewBox="0 0 400 600"><defs>
<radialGradient id="bg" cx=".5" cy=".4" r=".85"><stop offset="0" stop-color="#7c2d12"/><stop offset="1" stop-color="#1a0b05"/></radialGradient>
<filter id="glow" x="-50%" y="-50%" width="200%" height="200%"><feGaussianBlur stdDeviation="9" result="b"/><feMerge><feMergeNode in="b"/><feMergeNode in="b"/><feMergeNode in="SourceGraphic"/></feMerge></filter>
<linearGradient id="fade" x1="0" y1="0" x2="0" y2="1"><stop offset=".55" stop-color="#000" stop-opacity="0"/><stop offset="1" stop-color="#000" stop-opacity=".85"/></linearGradient>
<pattern id="scan" width="4" height="4" patternUnits="userSpaceOnUse"><rect width="4" height="1" fill="#fff" opacity=".05"/></pattern></defs>
<rect width="400" height="600" fill="url(#bg)"/><circle cx="189" cy="572" r="0.9" fill="#fff" opacity="0.59"/><circle cx="386" cy="273" r="0.6" fill="#fff" opacity="0.68"/><circle cx="107" cy="219" r="0.9" fill="#fff" opacity="0.88"/><circle cx="376" cy="159" r="0.9" fill="#fff" opacity="0.52"/><circle cx="47" cy="578" r="0.9" fill="#fff" opacity="0.37"/><circle cx="58" cy="162" r="0.6" fill="#fff" opacity="0.64"/><circle cx="77" cy="74" r="0.9" fill="#fff" opacity="0.46"/><circle cx="158" cy="375" r="0.6" fill="#fff" opacity="0.46"/><circle cx="270" cy="136" r="1.8" fill="#fff" opacity="0.83"/><circle cx="261" cy="193" r="0.6" fill="#fff" opacity="0.88"/><circle cx="240" cy="244" r="1.3" fill="#fff" opacity="0.31"/><circle cx="254" cy="383" r="1.8" fill="#fff" opacity="0.59"/><circle cx="131" cy="124" r="0.6" fill="#fff" opacity="0.90"/><circle cx="344" cy="209" r="1.8" fill="#fff" opacity="0.45"/><circle cx="349" cy="365" r="0.9" fill="#fff" opacity="0.57"/><circle cx="233" cy="552" r="0.6" fill="#fff" opacity="0.57"/><circle cx="297" cy="490" r="1.3" fill="#fff" opacity="0.78"/><circle cx="294" cy="392" r="1.3" fill="#fff" opacity="0.83"/><circle cx="349" cy="61" r="0.6" fill="#fff" opacity="0.38"/><circle cx="209" cy="240" r="1.8" fill="#fff" opacity="0.41"/><circle cx="86" cy="364" r="0.9" fill="#fff" opacity="0.69"/><circle cx="136" cy="346" r="1.8" fill="#fff" opacity="0.40"/><circle cx="80" cy="13" r="1.8" fill="#fff" opacity="0.38"/><circle cx="253" cy="489" r="0.9" fill="#fff" opacity="0.56"/><circle cx="250" cy="592" r="0.9" fill="#fff" opacity="0.65"/><circle cx="295" cy="374" r="0.6" fill="#fff" opacity="0.58"/><circle cx="247" cy="277" r="1.3" fill="#fff" opacity="0.83"/><circle cx="57" cy="421" r="0.6" fill="#fff" opacity="0.32"/><circle cx="138" cy="102" r="1.3" fill="#fff" opacity="0.79"/><circle cx="392" cy="522" r="0.9" fill="#fff" opacity="0.88"/><circle cx="15" cy="168" r="0.9" fill="#fff" opacity="0.50"/><circle cx="117" cy="229" r="1.8" fill="#fff" opacity="0.51"/><circle cx="154" cy="363" r="0.9" fill="#fff" opacity="0.35"/><circle cx="288" cy="35" r="1.8" fill="#fff" opacity="0.38"/><circle cx="149" cy="90" r="0.9" fill="#fff" opacity="0.71"/><circle cx="172" cy="362" r="1.3" fill="#fff" opacity="0.65"/><circle cx="62" cy="350" r="1.3" fill="#fff" opacity="0.69"/><circle cx="18" cy="148" r="1.8" fill="#fff" opacity="0.34"/><circle cx="358" cy="231" r="0.6" fill="#fff" opacity="0.79"/><circle cx="308" cy="207" r="0.9" fill="#fff" opacity="0.68"/><circle cx="62" cy="331" r="1.3" fill="#fff" opacity="0.76"/><circle cx="266" cy="178" r="1.3" fill="#fff" opacity="0.51"/><circle cx="161" cy="357" r="0.9" fill="#fff" opacity="0.49"/><circle cx="175" cy="367" r="1.8" fill="#fff" opacity="0.59"/><circle cx="29" cy="426" r="1.8" fill="#fff" opacity="0.71"/><circle cx="151" cy="380" r="0.6" fill="#fff" opacity="0.43"/><circle cx="132" cy="197" r="1.3" fill="#fff" opacity="0.63"/><circle cx="57" cy="564" r="0.9" fill="#fff" opacity="0.32"/><circle cx="337" cy="43" r="0.6" fill="#fff" opacity="0.48"/><circle cx="286" cy="30" r="1.8" fill="#fff" opacity="0.63"/><circle cx="356" cy="76" r="1.8" fill="#fff" opacity="0.79"/><circle cx="366" cy="221" r="0.9" fill="#fff" opacity="0.54"/><circle cx="329" cy="12" r="1.8" fill="#fff" opacity="0.56"/><circle cx="206" cy="168" r="0.9" fill="#fff" opacity="0.59"/><circle cx="354" cy="146" r="0.6" fill="#fff" opacity="0.66"/><circle cx="238" cy="291" r="1.8" fill="#fff" opacity="0.89"/><circle cx="22" cy="138" r="1.3" fill="#fff" opacity="0.57"/><circle cx="77" cy="483" r="0.9" fill="#fff" opacity="0.61"/><circle cx="285" cy="233" r="0.6" fill="#fff" opacity="0.71"/><circle cx="395" cy="137" r="0.6" fill="#fff" opacity="0.34"/><circle cx="260" cy="268" r="0.6" fill="#fff" opacity="0.36"/><circle cx="326" cy="276" r="1.3" fill="#fff" opacity="0.57"/><circle cx="134" cy="391" r="1.3" fill="#fff" opacity="0.44"/><circle cx="66" cy="357" r="0.9" fill="#fff" opacity="0.58"/><circle cx="384" cy="489" r="1.8" fill="#fff" opacity="0.70"/><circle cx="166" cy="494" r="0.6" fill="#fff" opacity="0.67"/><circle cx="341" cy="358" r="1.8" fill="#fff" opacity="0.87"/><circle cx="345" cy="9" r="1.3" fill="#fff" opacity="0.38"/><circle cx="194" cy="485" r="0.9" fill="#fff" opacity="0.46"/><circle cx="374" cy="446" r="1.3" fill="#fff" opacity="0.80"/>
<circle cx="200" cy="260" r="150" fill="none" stroke="#fb923c" stroke-width="1" opacity=".35"/><circle cx="200" cy="260" r="190" fill="none" stroke="#fb923c" stroke-width="1" opacity=".2" stroke-dasharray="4 10"/>
<g filter="url(#glow)"><path d="M200 150 L290 190 V290 Q290 350 200 400 Q110 350 110 290 V190Z" fill="none" stroke="#fb923c" stroke-width="6"/><path d="M200 185 L215 225 L258 228 L225 255 L236 297 L200 273 L164 297 L175 255 L142 228 L185 225Z" fill="#fb923c"/><path d="M60 330 L130 300 M340 330 L270 300" stroke="#fb923c" stroke-width="5" stroke-linecap="round"/></g>
<rect width="400" height="600" fill="url(#fade)"/><rect width="400" height="600" fill="url(#scan)"/>
<rect x="8" y="8" width="384" height="584" rx="14" fill="none" stroke="#fb923c" stroke-opacity=".5" stroke-width="2"/>
<g font-family="system-ui,sans-serif" fill="#fff" text-anchor="middle"><text x="200" y="64" font-size="18" letter-spacing="10" opacity=".85">STARCRAFT</text><text x="200" y="515" font-size="46" font-weight="800" letter-spacing="2" fill="#fb923c" filter="url(#glow)">TERRAN</text><text x="200" y="552" font-size="16" letter-spacing="6" opacity=".85">DAWN</text></g></svg>