<svg xmlns="http://www.w3.org/2000/svg" viewBox="0 0 400 600"><defs>
<radialGradient id="bg" cx=".5" cy=".4" r=".85"><stop offset="0" stop-color="#4c1d95"/><stop offset="1" stop-color="#12031f"/></radialGradient>
<filter id="glow" x="-50%" y="-50%" width="200%" height="200%"><feGaussianBlur stdDeviation="9" result="b"/><feMerge><feMergeNode in="b"/><feMergeNode in="b"/><feMergeNode in="SourceGraphic"/></feMerge></filter>
<linearGradient id="fade" x1="0" y1="0" x2="0" y2="1"><stop offset=".55" stop-color="#000" stop-opacity="0"/><stop offset="1" stop-color="#000" stop-opacity=".85"/></linearGradient>
<pattern id="scan" width="4" height="4" patternUnits="userSpaceOnUse"><rect width="4" height="1" fill="#fff" opacity=".05"/></pattern></defs>
<rect width="400" height="600" fill="url(#bg)"/><circle cx="177" cy="532" r="0.6" fill="#fff" opacity="0.81"/><circle cx="42" cy="57" r="1.8" fill="#fff" opacity="0.85"/><circle cx="364" cy="557" r="1.3" fill="#fff" opacity="0.62"/><circle cx="232" cy="168" r="1.8" fill="#fff" opacity="0.51"/><circle cx="360" cy="239" r="1.8" fill="#fff" opacity="0.55"/><circle cx="274" cy="175" r="0.9" fill="#fff" opacity="0.55"/><circle cx="20" cy="472" r="1.3" fill="#fff" opacity="0.78"/><circle cx="97" cy="359" r="0.9" fill="#fff" opacity="0.84"/><circle cx="384" cy="216" r="0.9" fill="#fff" opacity="0.64"/><circle cx="349" cy="249" r="0.9" fill="#fff" opacity="0.33"/><circle cx="40" cy="304" r="0.6" fill="#fff" opacity="0.73"/><circle cx="205" cy="576" r="0.6" fill="#fff" opacity="0.82"/><circle cx="246" cy="175" r="0.6" fill="#fff" opacity="0.61"/><circle cx="116" cy="112" r="1.3" fill="#fff" opacity="0.67"/><circle cx="314" cy="428" r="1.8" fill="#fff" opacity="0.44"/><circle cx="340" cy="572" r="0.9" fill="#fff" opacity="0.84"/><circle cx="1" cy="330" r="1.8" fill="#fff" opacity="0.40"/><circle cx="69" cy="332" r="0.6" fill="#fff" opacity="0.71"/><circle cx="199" cy="398" r="0.6" fill="#fff" opacity="0.64"/><circle cx="365" cy="584" r="0.9" fill="#fff" opacity="0.51"/><circle cx="264" cy="12" r="1.3" fill="#fff" opacity="0.30"/><circle cx="203" cy="61" r="1.8" fill="#fff" opacity="0.31"/><circle cx="67" cy="474" r="0.9" fill="#fff" opacity="0.83"/><circle cx="206" cy="155" r="1.8" fill="#fff" opacity="0.51"/><circle cx="192" cy="450" r="1.8" fill="#fff" opacity="0.64"/><circle cx="355" cy="344" r="1.3" fill="#fff" opacity="0.73"/><circle cx="63" cy="380" r="0.9" fill="#fff" opacity="0.64"/><circle cx="255" cy="116" r="0.9" fill="#fff" opacity="0.68"/><circle cx="294" cy="521" r="0.6" fill="#fff" opacity="0.55"/><circle cx="152" cy="545" r="0.9" fill="#fff" opacity="0.71"/><circle cx="78" cy="565" r="0.6" fill="#fff" opacity="0.58"/><circle cx="331" cy="234" r="0.6" fill="#fff" opacity="0.81"/><circle cx="227" cy="373" r="1.8" fill="#fff" opacity="0.35"/><circle cx="122" cy="372" r="1.8" fill="#fff" opacity="0.45"/><circle cx="40" cy="83" r="0.9" fill="#fff" opacity="0.75"/><circle cx="199" cy="110" r="1.8" fill="#fff" opacity="0.89"/><circle cx="105" cy="58" r="1.8" fill="#fff" opacity="0.35"/><circle cx="288" cy="76" r="1.3" fill="#fff" opacity="0.36"/><circle cx="287" cy="206" r="0.6" fill="#fff" opacity="0.32"/><circle cx="72" cy="71" r="0.6" fill="#fff" opacity="0.77"/><circle cx="217" cy="323" r="1.3" fill="#fff" opacity="0.32"/><circle cx="14" cy="91" r="1.3" fill="#fff" opacity="0.37"/><circle cx="83" cy="577" r="1.3" fill="#fff" opacity="0.86"/><circle cx="220" cy="74" r="1.8" fill="#fff" opacity="0.35"/><circle cx="362" cy="280" r="1.8" fill="#fff" opacity="0.78"/><circle cx="327" cy="510" r="1.3" fill="#fff" opacity="0.65"/><circle cx="122" cy="292" r="0.9" fill="#fff" opacity="0.63"/><circle cx="200" cy="113" r="1.3" fill="#fff" opacity="0.79"/><circle cx="50" cy="474" r="0.6" fill="#fff" opacity="0.41"/><circle cx="84" cy="599" r="0.9" fill="#fff" opacity="0.65"/><circle cx="330" cy="189" r="0.6" fill="#fff" opacity="0.36"/><circle cx="232" cy="48" r="0.6" fill="#fff" opacity="0.60"/><circle cx="159" cy="433" r="0.9" fill="#fff" opacity="0.33"/><circle cx="195" cy="41" r="0.6" fill="#fff" opacity="0.65"/><circle cx="320" cy="121" r="1.3" fill="#fff" opacity="0.65"/><circle cx="277" cy="329" r="1.8" fill="#fff" opacity="0.68"/><circle cx="105" cy="459" r="1.8" fill="#fff" opacity="0.63"/><circle cx="396" cy="458" r="1.8" fill="#fff" opacity="0.60"/><circle cx="213" cy="8" r="1.3" fill="#fff" opacity="0.46"/><circle cx="94" cy="33" r="1.3" fill="#fff" opacity="0.35"/><circle cx="81" cy="392" r="0.9" fill="#fff" opacity="0.49"/><circle cx="92" cy="373" r="0.9" fill="#fff" opacity="0.87"/><circle cx="162" cy="204" r="1.3" fill="#fff" opacity="0.55"/><circle cx="329" cy="103" r="0.9" fill="#fff" opacity="0.37"/><circle cx="387" cy="528" r="0.9" fill="#fff" opacity="0.68"/><circle cx="85" cy="254" r="1.3" fill="#fff" opacity="0.46"/><circle cx="240" cy="402" r="1.8" fill="#fff" opacity="0.68"/><circle cx="101" cy="514" r="1.8" fill="#fff" opacity="0.67"/><circle cx="246" cy="237" r="1.8" fill="#fff" opacity="0.54"/><circle cx="113" cy="480" r="0.9" fill="#fff" opacity="0.71"/>
<circle cx="200" cy="260" r="150" fill="none" stroke="#c084fc" stroke-width="1" opacity=".35"/><circle cx="200" cy="260" r="190" fill="none" stroke="#c084fc" stroke-width="1" opacity=".2" stroke-dasharray="4 10"/>
<g filter="url(#glow)"><g fill="#c084fc"><path d="M200 140 Q235 220 200 330 Q165 220 200 140Z"/><path d="M150 170 Q160 260 120 340 Q100 250 150 170Z"/><path d="M250 170 Q240 260 280 340 Q300 250 250 170Z"/><path d="M110 200 Q105 280 60 330 Q55 250 110 200Z" opacity=".7"/><path d="M290 200 Q295 280 340 330 Q345 250 290 200Z" opacity=".7"/></g><ellipse cx="200" cy="360" rx="70" ry="14" fill="#c084fc" opacity=".5"/></g>
<rect width="400" height="600" fill="url(#fade)"/><rect width="400" height="600" fill="url(#scan)"/>
<rect x="8" y="8" width="384" height="584" rx="14" fill="none" stroke="#c084fc" stroke-opacity=".5" stroke-width="2"/>
<g font-family="system-ui,sans-serif" fill="#fff" text-anchor="middle"><text x="200" y="64" font-size="18" letter-spacing="10" opacity=".85">STARCRAFT</text><text x="200" y="515" font-size="46" font-weight="800" letter-spacing="2" fill="#c084fc" filter="url(#glow)">ZERG</text><text x="200" y="552" font-size="16" letter-spacing="6" opacity=".85">RUSH</text></g></svg>